<svg width="156" height="29" viewBox="0 0 156 29" fill="none" xmlns="http://www.w3.org/2000/svg">
<path d="M0 27.6V0H5.36V27.6H0ZM2.48 0H7.76L13.8 15.28L13.72 21.76H11.56L2.48 0ZM13 21.76L12.92 15.28L19 0H24.24L15.2 21.76H13ZM21.36 27.6V0H26.72V27.6H21.36Z" fill="white"/>
<path d="M37.9062 27.6V0H43.4663V27.6H37.9062ZM40.5463 27.6V22.68H56.9863V27.6H40.5463ZM40.5463 16V11.32H54.8663V16H40.5463ZM40.5463 4.92V0H56.7863V4.92H40.5463Z" fill="#A3A3A3"/>
<path d="M67.1016 27.6V0H72.6616V27.6H67.1016ZM69.7416 27.6V22.68H86.1816V27.6H69.7416ZM69.7416 16V11.32H84.0616V16H69.7416ZM69.7416 4.92V0H85.9816V4.92H69.7416Z" fill="#A3A3A3"/>
<path d="M93.7769 4.92V0H114.937V4.92H93.7769ZM101.577 27.6V0H107.137V27.6H101.577Z" fill="white"/>
<path d="M120.217 0H126.617L133.657 12.44L133.537 17.08H130.537L120.217 0ZM130.097 27.6V15.6H135.657V27.6H130.097ZM132.257 12.44L139.297 0H145.537L135.217 17.08H132.457L132.257 12.44Z" fill="white"/>
<path d="M148.788 24.76C148.788 23.8 149.094 23.0133 149.708 22.4C150.348 21.76 151.148 21.44 152.108 21.44C153.094 21.44 153.894 21.76 154.508 22.4C155.121 23.0133 155.428 23.8 155.428 24.76C155.428 25.6933 155.121 26.48 154.508 27.12C153.894 27.7333 153.094 28.04 152.108 28.04C151.148 28.04 150.348 27.7333 149.708 27.12C149.094 26.48 148.788 25.6933 148.788 24.76Z" fill="white"/>
</svg>
