<svg width="576" height="101" viewBox="0 0 576 101" fill="none" xmlns="http://www.w3.org/2000/svg">
<path d="M100.24 50.12C100.24 22.4 77.7 0 49.98 0C22.26 0 0 22.54 0 50.12C0 77.98 22.4 100.24 50.12 100.24C77.84 100.24 100.24 77.7 100.24 50.12ZM80.78 70.98C80.36 84.42 74.48 96.18 62.44 95.76C39.2 95.06 18.48 55.86 19.46 29.4C19.88 15.96 25.62 4.06 37.8 4.47999C60.9 5.32 81.76 44.66 80.78 70.98Z" fill="white"/>
<path d="M104.173 39.9C106.413 41.44 110.613 47.46 110.613 60.9V72.8C110.613 92.68 120.133 100.24 134.133 100.24C142.673 100.24 149.673 95.06 153.033 91.56L152.893 99.12H181.313C178.093 96.46 174.313 88.62 174.313 74.62V28L146.873 39.34V39.9C149.113 41.44 153.313 47.46 153.313 60.9L153.033 88.2C150.233 90.58 147.293 92.68 142.393 92.68C133.573 92.68 131.613 84.84 131.613 70.98V28L104.173 39.34V39.9Z" fill="white"/>
<path d="M210.767 28.84V9.24H209.647C205.587 19.32 192.147 27.58 181.367 28.84V30.1H189.767V67.9C189.767 95.2 208.247 99.12 224.207 99.12V98C217.487 96.6 210.767 90.16 210.767 72.1V30.1H224.207V28.84H210.767Z" fill="white"/>
<path d="M224.902 65.8C224.902 90.86 239.462 100.24 253.462 100.24C265.222 100.24 271.662 93.94 274.042 90.86L273.902 99.12H302.322C299.102 96.46 295.742 88.62 295.742 74.62V1.11999L268.302 14.56V15.12C270.542 16.66 274.742 22.12 274.742 36.12V36.68C272.502 34.86 265.362 28 254.022 28C242.122 28 224.902 38.64 224.902 65.8ZM247.162 63.7C247.022 43.96 252.202 33.46 261.442 33.46C268.302 33.46 272.362 37.38 274.742 40.04L274.042 87.36C272.082 90.58 267.182 95.2 262.142 95.2C253.182 95.2 247.442 85.4 247.162 63.7Z" fill="white"/>
<path d="M304.883 63.98C304.883 84.28 320.983 100.24 341.003 100.24C361.163 100.24 377.123 84.14 377.123 64.12C377.123 44.1 361.023 28 341.143 28C321.123 28 304.883 43.96 304.883 63.98ZM322.943 44.66C322.943 36.82 325.603 31.36 330.643 31.36C344.783 31.36 359.203 64.68 359.203 83.16C359.203 91.7 356.263 97.16 350.943 96.88C337.083 95.76 322.943 62.72 322.943 44.66Z" fill="white"/>
<path d="M381.309 63.98C381.309 84.28 397.409 100.24 417.429 100.24C437.589 100.24 453.549 84.14 453.549 64.12C453.549 44.1 437.449 28 417.569 28C397.549 28 381.309 43.96 381.309 63.98ZM399.369 44.66C399.369 36.82 402.029 31.36 407.069 31.36C421.209 31.36 435.629 64.68 435.629 83.16C435.629 91.7 432.689 97.16 427.369 96.88C413.509 95.76 399.369 62.72 399.369 44.66Z" fill="white"/>
<path d="M456.087 41.3C458.327 42.84 462.807 48.3 462.527 62.3L461.687 99.12H490.107C486.887 96.46 483.527 88.62 483.527 74.62V63.84C483.527 49 499.067 46.76 508.307 48.72L512.647 28C495.007 29.68 486.607 39.34 483.527 55.58V28L456.087 40.74V41.3Z" fill="white"/>
<path d="M575.91 79.66C576.33 67.62 568.49 60.9 552.81 54.04C537.55 47.32 532.37 42.56 532.37 36.82C532.37 32.2 536.71 29.26 543.57 30.38C553.79 32.06 565.55 41.58 570.59 55.72H570.87L569.75 32.62C564.99 30.38 556.59 28.42 547.49 28C531.11 27.3 517.53 33.6 517.67 48.44C517.81 61.32 527.47 67.2 544.69 75.6C553.65 79.94 560.93 83.72 561.49 89.18C562.19 95.48 557.15 98.56 549.31 98C538.39 97.3 526.07 85.12 517.11 70.28H516.83L518.37 96.18C524.11 98.14 535.45 100.24 548.61 100.24C562.19 100.24 575.35 93.94 575.91 79.66Z" fill="white"/>
</svg>
